<svg width="800" height="800" viewBox="0 0 800 800" fill="none" xmlns="http://www.w3.org/2000/svg">
<path d="M38.7803 227.968C49.7787 204.916 80.0175 201.64 98.0781 219.7L163.23 284.852C192.696 314.318 200 358.328 200 400C200 510.457 289.543 600 400 600C441.671 600 485.68 607.302 515.146 636.769L580.299 701.921C598.359 719.982 595.083 750.22 572.031 761.219C519.921 786.081 461.586 800 400 800C179.086 800 0 620.914 0 400C0 338.414 13.9179 280.079 38.7803 227.968ZM400 0C620.914 0 800 179.086 800 400C800 461.586 786.081 519.921 761.219 572.031C750.22 595.083 719.982 598.359 701.921 580.299L636.769 515.146C607.302 485.68 600 441.671 600 400C600 289.543 510.457 200 400 200C358.328 200 314.318 192.696 284.852 163.23L219.7 98.0781C201.64 80.0175 204.915 49.7787 227.968 38.7803C280.079 13.9179 338.414 0 400 0Z" fill="#010080"/>
</svg>
